# xmcd
#
# Track frame offsets: 
#        150
#        19492
#        32815
#        57885
#        60957
#        77832
#        93652
#        109490
#        124360
#        126112
#        146272
#        163332
#        187690
#        211680
#        214502
#        235740
#        257515
#        274107
#        298335
#
# Disc length: 4242 seconds
#
# Revision: 0
# Processed by: cddbd v1.4PL0 Copyright (c) Steve Scherf et al.
# Submitted via: ExactAudioCopy v0.90a11
#
DISCID=17109013
DTITLE=John Autin - Piano Face
DYEAR=1900
DGENRE=
TTITLE0=My Name is John
TTITLE1=Ain't Got No Room for the Blues
TTITLE2=Lullaby
TTITLE3=Interlude
TTITLE4=Taxes
TTITLE5=I Want to be Seduced
TTITLE6=Let's Buzz
TTITLE7=Publicity
TTITLE8=Interlude #2
TTITLE9=The Blues Lose
TTITLE10=Hog Dog
TTITLE11=Guilty
TTITLE12=My Baby Don't Care
TTITLE13=Interlude #3
TTITLE14=Blind Man Blues
TTITLE15=Kissing You in My Dreams
TTITLE16=Georgia
TTITLE17=This
TTITLE18=Martha
EXTD=
EXTT0=
EXTT1=
EXTT2=
EXTT3=
EXTT4=
EXTT5=
EXTT6=
EXTT7=
EXTT8=
EXTT9=
EXTT10=
EXTT11=
EXTT12=
EXTT13=
EXTT14=
EXTT15=
EXTT16=
EXTT17=
EXTT18=
PLAYORDER=
